<?xml version="1.0" encoding="utf-8"?>
<!-- Generator: Adobe Illustrator 18.1.1, SVG Export Plug-In . SVG Version: 6.00 Build 0)  -->
<svg version="1.1" id="Layer_1" xmlns="http://www.w3.org/2000/svg" xmlns:xlink="http://www.w3.org/1999/xlink" x="0px" y="0px"
	 viewBox="0 0 126.1 186.6" enable-background="new 0 0 126.1 186.6" xml:space="preserve">
<g>
	<g>
		<path fill="#6C3D16" d="M5.9,186.6c-2.2,0-4.3-1.2-5.3-3.4c-1.4-2.9-0.1-6.5,2.8-7.9l114.3-54.2c2.9-1.4,6.5-0.1,7.9,2.8
			c1.4,2.9,0.1,6.5-2.8,7.9L8.4,186C7.6,186.4,6.8,186.6,5.9,186.6z"/>
	</g>
	<g>
		<path fill="#864D22" d="M41.8,149.7c-0.9,0-1.7-0.2-2.6-0.6L3.3,131.8c-2.9-1.4-4.2-4.9-2.8-7.9c1.4-2.9,5-4.2,7.9-2.8l35.9,17.3
			c2.9,1.4,4.2,4.9,2.8,7.9C46.1,148.5,44,149.7,41.8,149.7z"/>
	</g>
	<g>
		<path fill="#864D22" d="M120.2,186.4c-0.9,0-1.7-0.2-2.6-0.6l-35.5-17.2c-2.9-1.4-4.2-5-2.7-7.9c1.4-2.9,5-4.2,7.9-2.7l35.5,17.2
			c2.9,1.4,4.2,5,2.7,7.9C124.5,185.2,122.4,186.4,120.2,186.4z"/>
	</g>
	<g>
		<path fill="#E17135" d="M63.6,132.9c-26.3,0-47.7-21.4-47.7-47.7c0-10.2,5.9-17,11-23.1c6.3-7.3,9.7-11.9,7-19.8
			c-0.7-2.2-0.1-4.7,1.7-6.3c1.8-1.6,4.3-1.9,6.4-0.9c0.3,0.2,33.8,16.3,22.9,59c-0.8,3.2-4,5.1-7.2,4.3c-3.2-0.8-5.1-4-4.3-7.2
			c5-19.6-1.2-31.7-7.4-38.4c-1.6,7-6.2,12.4-10.2,17c-4.4,5.1-8.2,9.6-8.2,15.4c0,19.8,16.1,35.9,35.9,35.9
			c19.8,0,35.9-16.1,35.9-35.9c0-11.8-6.5-20.7-14-30.9c-7.3-10-15.4-21-17.4-36c-2.8,3.3-5.3,7.5-5.6,12.6c-0.2,3.3-3,5.7-6.3,5.5
			c-3.3-0.2-5.7-3-5.5-6.3c1.2-18.8,19.6-29,20.4-29.4C73-0.3,75.4-0.2,77.2,1C79,2.2,80,4.4,79.8,6.5C77.9,24,86.2,35.3,95,47.2
			c8,10.9,16.3,22.2,16.3,37.9C111.3,111.4,89.9,132.9,63.6,132.9z"/>
	</g>
</g>
</svg>
